<?xml version="1.0" encoding="utf-8"?>
<!-- Generator: Adobe Illustrator 16.0.0, SVG Export Plug-In . SVG Version: 6.00 Build 0)  -->
<!DOCTYPE svg PUBLIC "-//W3C//DTD SVG 1.1//EN" "http://www.w3.org/Graphics/SVG/1.1/DTD/svg11.dtd">
<svg version="1.1" id="图层_1" xmlns="http://www.w3.org/2000/svg" xmlns:xlink="http://www.w3.org/1999/xlink" x="0px" y="0px"
	 width="600px" height="600px" viewBox="0 0 600 600" enable-background="new 0 0 600 600" xml:space="preserve">
<circle fill="#EA5514" cx="309.5" cy="303" r="234.5"/>
<path fill="#FFFFFF" d="M124.302,345.927c0.08,59.373,76.261,95.476,150.779,95.476c97.736,0,162.761-56.793,162.761-101.885
	c0-27.233-22.951-42.698-43.563-49.094c-5.053-1.503-8.537-2.54-5.877-9.188c5.73-14.441,6.329-26.901,0.106-35.783
	c-11.676-16.662-43.589-15.771-80.184-0.452c0-0.014-11.489,5.026-8.551-4.083c5.625-18.098,4.774-33.243-3.976-42.006
	c-19.854-19.854-72.644,0.758-117.922,46.009c-33.815,33.828-53.482,69.679-53.575,100.701V345.927L124.302,345.927z
	 M275.268,420.101c-59.493,5.864-110.848-21.023-114.717-60.092c-3.856-39.055,41.262-75.476,100.754-81.354
	c59.493-5.891,110.848,20.997,114.704,60.052C379.865,377.788,334.773,414.209,275.268,420.101L275.268,420.101z M459.185,181.664
	c-23.604-26.17-58.416-36.143-90.569-29.308l0,0c-7.433,1.582-12.181,8.909-10.585,16.329c1.583,7.42,8.896,12.181,16.33,10.585
	c22.871-4.854,47.604,2.247,64.386,20.837c16.768,18.59,21.329,43.948,14.135,66.168l0.014,0.014
	c-2.34,7.233,1.609,14.986,8.856,17.326c7.233,2.327,14.999-1.622,17.34-8.843c0-0.014,0-0.04,0-0.053
	C489.17,243.443,482.787,207.807,459.185,181.664L459.185,181.664z M422.936,214.376c-11.489-12.739-28.443-17.579-44.107-14.255
	c-6.409,1.356-10.479,7.659-9.109,14.068c1.37,6.383,7.673,10.479,14.056,9.096v0.013c7.646-1.622,15.943,0.731,21.568,6.955
	c5.611,6.236,7.128,14.72,4.708,22.18h0.026c-2.021,6.21,1.383,12.898,7.605,14.906c6.237,1.995,12.912-1.396,14.92-7.632
	C437.522,244.481,434.451,227.114,422.936,214.376L422.936,214.376z M278.565,349.345c-2.088,3.563-6.688,5.279-10.292,3.79
	c-3.537-1.463-4.654-5.439-2.633-8.937c2.074-3.471,6.488-5.173,10.025-3.763C279.257,341.738,280.547,345.768,278.565,349.345
	L278.565,349.345z M259.604,373.679c-5.758,9.188-18.085,13.204-27.366,8.976c-9.149-4.175-11.835-14.84-6.091-23.789
	c5.691-8.909,17.606-12.885,26.808-9.016C262.289,353.813,265.255,364.41,259.604,373.679L259.604,373.679z M281.225,308.708
	c-28.311-7.367-60.317,6.741-72.617,31.688c-12.513,25.438-0.412,53.682,28.19,62.923c29.64,9.548,64.56-5.093,76.7-32.552
	C325.479,343.919,310.519,316.273,281.225,308.708L281.225,308.708z"/>
</svg>
